<?xml version="1.0" encoding="utf-8"?>
<!-- Generator: Adobe Illustrator 17.1.0, SVG Export Plug-In . SVG Version: 6.00 Build 0)  -->
<!DOCTYPE svg PUBLIC "-//W3C//DTD SVG 1.1//EN" "http://www.w3.org/Graphics/SVG/1.1/DTD/svg11.dtd">
<svg version="1.1" id="Layer_1" xmlns="http://www.w3.org/2000/svg" xmlns:xlink="http://www.w3.org/1999/xlink" x="0px" y="0px"
	 viewBox="0 0.7 8.6 8.6" enable-background="new 0 0.7 8.6 8.6" xml:space="preserve">
<path fill="#FFFFFF" d="M8.4,5.9L8.4,5.9c-0.2,1-0.7,1.8-1.5,2.5S5.3,9.3,4.3,9.3C3.7,9.3,3.2,9.2,2.7,9s-1-0.5-1.4-0.9L0.6,8.8
	C0.5,8.9,0.5,8.9,0.4,8.9s-0.2,0-0.3-0.1C0,8.8,0,8.7,0,8.6V6.1C0,6,0,5.9,0.1,5.8s0.2-0.1,0.3-0.1h2.5c0.1,0,0.2,0,0.3,0.1
	C3.2,5.9,3.2,6,3.2,6.1c0,0.1,0,0.2-0.1,0.3L2.3,7.1c0.3,0.2,0.6,0.4,0.9,0.6c0.3,0.1,0.7,0.2,1,0.2c0.5,0,1-0.1,1.4-0.4
	c0.4-0.2,0.8-0.6,1-1c0-0.1,0.1-0.3,0.3-0.7c0-0.1,0.1-0.1,0.2-0.1h1.1c0,0,0.1,0,0.1,0.1S8.4,5.8,8.4,5.9L8.4,5.9z M8.6,1.4v2.5
	c0,0.1,0,0.2-0.1,0.3C8.4,4.3,8.3,4.3,8.2,4.3H5.7c-0.1,0-0.2,0-0.3-0.1C5.4,4.1,5.4,4,5.4,3.9c0-0.1,0-0.2,0.1-0.3l0.8-0.8
	C5.7,2.4,5,2.1,4.3,2.1c-0.5,0-1,0.1-1.4,0.4s-0.8,0.6-1,1c0,0.1-0.1,0.3-0.3,0.7c0,0.1-0.1,0.1-0.2,0.1H0.3c0,0-0.1,0-0.1-0.1
	c0,0-0.1-0.1-0.1-0.1v0c0.2-1,0.7-1.8,1.5-2.4s1.7-0.9,2.7-0.9c0.5,0,1.1,0.1,1.6,0.3s1,0.5,1.4,0.9L8,1.2C8,1.1,8.1,1.1,8.2,1.1
	c0.1,0,0.2,0,0.3,0.1S8.6,1.3,8.6,1.4L8.6,1.4z"/>
</svg>
